<svg width="58" height="12" viewBox="0 0 58 12" fill="none" xmlns="http://www.w3.org/2000/svg">
<path d="M57.156 0.90952C56.7893 0.940815 56.5092 1.25035 56.5147 1.61831V10.3814C56.5091 10.7495 56.7892 11.0591 57.156 11.0904C57.3442 11.1021 57.5289 11.0354 57.6663 10.9063C57.8038 10.7771 57.8818 10.5969 57.8818 10.4083V1.5917C57.8818 1.40307 57.8039 1.22282 57.6664 1.09364C57.529 0.964453 57.3442 0.897822 57.156 0.90952Z" fill="black"/>
<path d="M19.9477 0.981479C19.6064 0.810576 19.1911 0.948807 19.0202 1.29021L15.2011 8.9219C15.2004 8.92318 15.1991 8.92398 15.1977 8.92398C15.1963 8.92398 15.195 8.92318 15.1944 8.9219L11.3752 1.29021C11.1993 0.958495 10.7908 0.827853 10.4551 0.995963C10.1194 1.16407 9.97925 1.56944 10.1395 1.90898L14.5435 10.71C14.6607 10.9443 14.9002 11.0922 15.1622 11.092C15.1739 11.092 15.1858 11.0906 15.1977 11.09C15.2095 11.0895 15.2214 11.092 15.2333 11.092C15.4952 11.0922 15.7347 10.9443 15.8519 10.71L20.2565 1.90898C20.4273 1.5676 20.2891 1.15237 19.9477 0.981479Z" fill="black"/>
<path d="M41.9451 0.977909C41.5777 1.00952 41.2971 1.3197 41.3024 1.68846V8.37721L41.3 8.38086L41.2959 8.37951L35.7725 1.17624C35.5559 0.894314 35.1599 0.824534 34.86 1.01547C34.6593 1.14745 34.5401 1.37294 34.544 1.61311V10.3799C34.5386 10.7486 34.8191 11.0588 35.1865 11.0904C35.3752 11.1021 35.5603 11.0353 35.698 10.9058C35.8358 10.7763 35.9139 10.5957 35.9139 10.4067V3.62275L35.9164 3.61933L35.9204 3.62045L41.4441 10.8235C41.6641 11.1104 42.0692 11.1771 42.3696 10.9758C42.5626 10.8425 42.6763 10.6216 42.6726 10.387V1.66162C42.6726 1.47269 42.5945 1.29204 42.4568 1.16255C42.3189 1.033 42.1338 0.966214 41.9451 0.977909Z" fill="black"/>
<path d="M53.781 0.908163H45.5036C45.1355 0.902575 44.8258 1.18263 44.7945 1.54939C44.7829 1.73761 44.8496 1.92227 44.9788 2.05967C45.1079 2.19707 45.2881 2.27501 45.4767 2.27505L48.9418 2.27505C48.9438 2.2751 48.9455 2.27674 48.9455 2.27877L48.9455 10.3814C48.9399 10.7494 49.2199 11.059 49.5866 11.0904C49.7748 11.102 49.9594 11.0353 50.0968 10.9062C50.2343 10.777 50.3121 10.5968 50.3122 10.4082V2.27877L50.3157 2.27505L53.7545 2.27505C54.1225 2.28052 54.4321 2.00049 54.4633 1.63382C54.4749 1.44558 54.4082 1.2609 54.2791 1.1235C54.1499 0.986093 53.9696 0.908168 53.781 0.908163Z" fill="black"/>
<path d="M6.29121 1.28987C6.16811 1.04401 5.91097 0.894521 5.6364 0.909193C5.36233 0.895142 5.10588 1.04453 4.98292 1.28987L0.57814 10.0912C0.40727 10.4326 0.545493 10.8478 0.886868 11.0187C1.22824 11.1896 1.6435 11.0514 1.81437 10.71L2.8964 8.54801C2.89699 8.54673 2.89828 8.54592 2.89968 8.54593H8.37444C8.37585 8.54592 8.37713 8.54673 8.37773 8.54801L9.45975 10.71C9.63062 11.0513 10.0459 11.1895 10.3872 11.0187C10.7285 10.8478 10.8667 10.4326 10.6959 10.0912L6.29121 1.28987ZM3.4189 7.50376L5.63378 3.07818C5.63436 3.07689 5.63565 3.07607 5.63706 3.07607C5.63847 3.07607 5.63976 3.07689 5.64035 3.07818L7.85533 7.50376C7.85591 7.50489 7.85585 7.50624 7.85518 7.50732C7.8545 7.5084 7.85331 7.50904 7.85204 7.50902H3.42219C3.42092 7.50904 3.41973 7.5084 3.41906 7.50732C3.41838 7.50624 3.41833 7.50489 3.4189 7.50376Z" fill="black"/>
<path d="M32.4657 10.1559C32.4575 10.1327 32.448 10.11 32.4371 10.0879L28.381 1.89228C28.1726 1.41064 27.7387 1.06391 27.223 0.966928C26.7072 0.869949 26.177 1.03538 25.8079 1.40843L24.8113 3.30593L22.4196 8.34371C22.0247 9.10485 21.4019 9.60885 20.6601 9.78528L24.3223 2.41128C24.3297 2.39628 24.3364 2.38105 24.3427 2.36561C24.4025 2.23105 24.5361 2.14441 24.6834 2.14461C24.6972 2.14484 24.7111 2.14587 24.7248 2.14767L25.3271 1.07627C24.9412 0.904197 24.5025 0.893883 24.1089 1.04763C23.7154 1.20138 23.3998 1.50638 23.2327 1.89447L19.1724 10.0712C19.1661 10.083 19.1603 10.0949 19.1549 10.1073C19.0646 10.307 19.0783 10.5383 19.1913 10.7261C19.3044 10.9138 19.5024 11.0341 19.7212 11.0478C19.8317 11.057 19.9435 11.0616 20.054 11.0616C21.5076 11.0616 22.7942 10.2493 23.4952 8.88834C23.4982 8.88253 23.5012 8.87673 23.5039 8.87071L25.786 4.06324L25.7867 4.0617L25.8069 4.01921L26.475 2.61575L26.474 2.61367L26.5745 2.40186C26.5788 2.39295 26.5827 2.38401 26.5865 2.37503C26.6443 2.23554 26.7804 2.1446 26.9314 2.1446C27.0825 2.1446 27.2186 2.23554 27.2764 2.37503C27.2814 2.38719 27.2874 2.39923 27.2927 2.41106L30.9421 9.78496C30.2055 9.60798 29.5858 9.10431 29.1915 8.34393L26.7897 3.27877L26.1266 4.69329L28.1069 8.86983C28.1097 8.87574 28.1127 8.88177 28.1157 8.88768C28.8275 10.2689 30.0778 11.0609 31.5469 11.0609C31.6629 11.0609 31.7803 11.0558 31.8959 11.0457C31.969 11.0394 32.0404 11.0198 32.1065 10.9877C32.4277 10.8492 32.5854 10.4847 32.4657 10.1559Z" fill="black"/>
</svg>
