<svg width="54" height="20" viewBox="0 0 54 20" fill="none" xmlns="http://www.w3.org/2000/svg">
<g clip-path="url(#clip0_22_368)">
<path d="M39.1896 7.61569H37.2896V14.0999C37.2887 14.2221 37.1895 14.321 37.0668 14.3219H35.6035C35.4809 14.321 35.3818 14.2221 35.3808 14.0999V7.61569H33.4669C33.4089 7.61805 33.3525 7.59685 33.3105 7.55695C33.2685 7.51706 33.2446 7.46189 33.2441 7.40406V6.25571C33.2445 6.19789 33.2685 6.14272 33.3105 6.10282C33.3525 6.06293 33.4089 6.04173 33.4669 6.04409H39.1861C39.3095 6.03818 39.4145 6.13276 39.421 6.25571V7.40406C39.4145 7.52562 39.3116 7.61964 39.1896 7.61569Z" fill="#FF3366"/>
<path d="M45.2827 14.278C44.5337 14.3849 43.7774 14.4336 43.0208 14.4238C41.5783 14.4238 40.3047 14.056 40.3047 12.0282V8.32814C40.3047 6.30032 41.5905 5.94471 43.0312 5.94471C43.782 5.93446 44.5325 5.98259 45.2758 6.08869C45.4324 6.11124 45.4985 6.16675 45.4985 6.31072V7.35153C45.4976 7.47376 45.3984 7.57262 45.2758 7.57356H42.9268C42.4048 7.57356 42.2117 7.74703 42.2117 8.33161V9.34466H45.194C45.3166 9.34559 45.4158 9.44446 45.4167 9.56669V10.6248C45.4158 10.7471 45.3166 10.8459 45.194 10.8469H42.2117V12.0282C42.2117 12.6076 42.4013 12.7862 42.9268 12.7862H45.2827C45.4053 12.7872 45.5045 12.886 45.5054 13.0083V14.0491C45.5072 14.1878 45.4393 14.2555 45.2827 14.278Z" fill="#FF3366"/>
<path d="M53.7148 14.322H51.9383C51.8144 14.3311 51.6981 14.2617 51.6477 14.1485L50.1061 11.72L48.7141 14.1034C48.6358 14.237 48.5575 14.3254 48.434 14.3254H46.7845C46.7413 14.3331 46.6969 14.3213 46.6633 14.2932C46.6297 14.265 46.6103 14.2235 46.6105 14.1797C46.6128 14.1525 46.6205 14.1259 46.6331 14.1017L49.0569 10.079L46.6105 6.25575C46.5979 6.23522 46.5902 6.21208 46.5879 6.1881C46.5962 6.10027 46.6737 6.03536 46.7619 6.04239H48.561C48.6845 6.04239 48.7733 6.15341 48.8411 6.25402L50.2714 8.50909L51.6634 6.25402C51.7138 6.13997 51.8197 6.05996 51.9435 6.04239H53.5982C53.6864 6.03536 53.7639 6.10027 53.7722 6.1881C53.7699 6.21208 53.7622 6.23522 53.7496 6.25575L51.3136 10.1015L53.8488 14.0912C53.8684 14.1252 53.8797 14.1632 53.8818 14.2023C53.8609 14.2786 53.8035 14.322 53.7148 14.322Z" fill="#FF3366"/>
<path d="M30.568 6.06658C30.4845 6.06473 30.4115 6.12224 30.394 6.20362L28.7706 12.1917C28.7479 12.3149 28.7149 12.3652 28.614 12.3652C28.5131 12.3652 28.48 12.3201 28.4574 12.1917L26.8392 6.20362C26.8217 6.12224 26.7487 6.06473 26.6652 6.06658H25.0679C25.0143 6.06526 24.9631 6.08868 24.9291 6.13003C24.8951 6.17138 24.8821 6.22606 24.8939 6.27821C24.8939 6.27821 26.8757 13.1423 26.8966 13.2169C27.1611 14.0356 27.8031 14.4311 28.6192 14.4311C29.4021 14.4592 30.1072 13.9621 30.3418 13.2169C30.3731 13.1232 32.3114 6.27821 32.3114 6.27821C32.3226 6.22631 32.3093 6.17215 32.2754 6.13123C32.2415 6.09031 32.1906 6.06713 32.1374 6.06832L30.568 6.06658Z" fill="#FF3366"/>
<path d="M21.515 0.500071H4.86007C4.2574 0.505564 3.70106 0.823439 3.39166 1.33908C3.08226 1.85472 3.06441 2.49375 3.34456 3.02575L5.01145 6.18978H1.99087C1.60497 6.18278 1.24417 6.3799 1.04244 6.70795C0.840719 7.03601 0.828199 7.44599 1.00953 7.78567L6.36862 17.8814C6.56093 18.244 6.93858 18.4708 7.34996 18.4708C7.76134 18.4708 8.139 18.244 8.3313 17.8814L9.78591 15.1459L11.6129 18.5909C11.9099 19.1502 12.4927 19.5 13.1275 19.5C13.7623 19.5 14.3451 19.1502 14.6422 18.5909L22.994 2.93554C23.2705 2.42025 23.2539 1.79775 22.9503 1.29782C22.6468 0.797891 22.1012 0.494666 21.515 0.500071ZM14.0732 7.11436L10.4193 13.9455C10.2937 14.1814 10.0477 14.3289 9.77982 14.3289C9.51192 14.3289 9.26592 14.1814 9.14039 13.9455L5.53344 7.18027C5.42215 6.97208 5.42865 6.72093 5.55056 6.51873C5.67246 6.31653 5.89188 6.19296 6.12851 6.19325H13.5094C13.7318 6.18984 13.9394 6.30393 14.0553 6.49322C14.1711 6.6825 14.178 6.91875 14.0732 7.11436Z" fill="#FF3366"/>
</g>
<defs>
<clipPath id="clip0_22_368">
<rect width="53" height="19" fill="white" transform="translate(0.881836 0.5)"/>
</clipPath>
</defs>
</svg>
